<svg width="29" height="29" viewBox="0 0 29 29" fill="none" xmlns="http://www.w3.org/2000/svg">
<path d="M10.3335 17.278C10.3335 19.5794 14.0641 21.4447 18.6668 21.4447C23.2696 21.4447 27.0002 19.5794 27.0002 17.278C27.0002 14.9766 23.2696 13.1113 18.6668 13.1113C14.0641 13.1113 10.3335 14.9766 10.3335 17.278Z" stroke="white" stroke-width="2.5" stroke-linecap="round" stroke-linejoin="round"/>
<path d="M10.3333 17.2778V22.8333C10.3333 25.1333 14.0639 27 18.6667 27C23.2694 27 27 25.1333 27 22.8333V17.2778M2 6.16667C2 7.65556 3.58889 9.03055 6.16667 9.775C8.74444 10.5194 11.9222 10.5194 14.5 9.775C17.0778 9.03055 18.6667 7.65556 18.6667 6.16667C18.6667 4.67778 17.0778 3.30278 14.5 2.55833C11.9222 1.81389 8.74444 1.81389 6.16667 2.55833C3.58889 3.30278 2 4.67778 2 6.16667Z" stroke="white" stroke-width="2.5" stroke-linecap="round" stroke-linejoin="round"/>
<path d="M2 6.1665V20.0554C2 21.2887 3.07222 22.0693 4.77778 22.8332" stroke="white" stroke-width="2.5" stroke-linecap="round" stroke-linejoin="round"/>
<path d="M2 13.1113C2 14.3447 3.07222 15.1252 4.77778 15.8891" stroke="white" stroke-width="2.5" stroke-linecap="round" stroke-linejoin="round"/>
</svg>
