<svg width="31" height="31" viewBox="0 0 31 31" fill="none" xmlns="http://www.w3.org/2000/svg">
<path d="M10.6667 18.7222C10.6667 21.3919 14.9942 23.5556 20.3334 23.5556C25.6726 23.5556 30.0001 21.3919 30.0001 18.7222C30.0001 16.0526 25.6726 13.8889 20.3334 13.8889C14.9942 13.8889 10.6667 16.0526 10.6667 18.7222Z" stroke="black" stroke-width="2" stroke-linecap="round" stroke-linejoin="round"/>
<path d="M10.6667 18.7222V25.1667C10.6667 27.8347 14.9941 30 20.3333 30C25.6726 30 30 27.8347 30 25.1667V18.7222M1 5.83333C1 7.56044 2.84311 9.15544 5.83333 10.019C8.82356 10.8826 12.5098 10.8826 15.5 10.019C18.4902 9.15544 20.3333 7.56044 20.3333 5.83333C20.3333 4.10622 18.4902 2.51122 15.5 1.64767C12.5098 0.784111 8.82356 0.784111 5.83333 1.64767C2.84311 2.51122 1 4.10622 1 5.83333Z" stroke="black" stroke-width="2" stroke-linecap="round" stroke-linejoin="round"/>
<path d="M1 5.83325V21.9444C1 23.375 2.24378 24.2805 4.22222 25.1666" stroke="black" stroke-width="2" stroke-linecap="round" stroke-linejoin="round"/>
<path d="M1 13.8889C1 15.3196 2.24378 16.225 4.22222 17.1111" stroke="black" stroke-width="2" stroke-linecap="round" stroke-linejoin="round"/>
</svg>
