<svg width="36" height="26" viewBox="0 0 36 26" fill="none" xmlns="http://www.w3.org/2000/svg">
<path fill-rule="evenodd" clip-rule="evenodd" d="M13.9676 19.1267C13.9944 19.2865 13.9895 19.4501 13.9531 19.6081C13.9167 19.7661 13.8495 19.9154 13.7554 20.0474C13.6613 20.1794 13.5421 20.2916 13.4046 20.3775C13.2671 20.4634 13.114 20.5214 12.9541 20.5481C9.00663 21.2108 5.24533 22.7059 1.92006 24.9341C1.64801 25.116 1.31483 25.1824 0.993806 25.1187C0.672784 25.055 0.390219 24.8664 0.208272 24.5943C0.0263257 24.3223 -0.0400985 23.9891 0.0236123 23.6681C0.0873231 23.3471 0.27595 23.0645 0.547997 22.8826C4.16383 20.4598 8.25375 18.834 12.5461 18.1132C12.706 18.0864 12.8696 18.0913 13.0276 18.1277C13.1856 18.1641 13.3348 18.2313 13.4669 18.3254C13.5989 18.4195 13.711 18.5387 13.7969 18.6762C13.8828 18.8137 13.9408 18.9668 13.9676 19.1267ZM21.4037 19.1267C21.4304 18.9668 21.4884 18.8137 21.5743 18.6762C21.6602 18.5387 21.7724 18.4195 21.9044 18.3254C22.0364 18.2313 22.1856 18.1641 22.3436 18.1277C22.5016 18.0913 22.6652 18.0864 22.8251 18.1132C27.1175 18.834 31.2074 20.4598 34.8232 22.8826C35.0953 23.0645 35.2839 23.3471 35.3476 23.6681C35.4113 23.9891 35.3449 24.3223 35.1629 24.5943C34.981 24.8664 34.6984 25.055 34.3774 25.1187C34.0564 25.1824 33.7232 25.116 33.4512 24.9341C30.1259 22.7059 26.3646 21.2108 22.4171 20.5481C22.2572 20.5214 22.1041 20.4634 21.9666 20.3775C21.8291 20.2916 21.7099 20.1794 21.6158 20.0474C21.5217 19.9154 21.4545 19.7661 21.4181 19.6081C21.3817 19.4501 21.3768 19.2865 21.4037 19.1267Z" fill="black"/>
<path fill-rule="evenodd" clip-rule="evenodd" d="M8.22583 9.45966C8.22583 6.9508 9.22247 4.5447 10.9965 2.77067C12.7705 0.99664 15.1766 0 17.6855 0C20.1943 0 22.6004 0.99664 24.3745 2.77067C26.1485 4.5447 27.1451 6.9508 27.1451 9.45966C27.1451 13.9707 24.9012 17.9372 22.7773 20.6994C21.6029 22.219 20.2881 23.6247 18.8503 24.8978C18.7311 25.001 18.6104 25.1025 18.4883 25.2022L18.4669 25.2219L18.4604 25.2269H18.4571C18.4571 25.2285 18.4571 25.2301 17.6855 24.2661L16.9781 25.2762L16.9731 25.2729L16.9666 25.268L16.9419 25.2515L16.8613 25.1923L16.5734 24.9751C16.235 24.7099 15.9047 24.4345 15.583 24.1493C14.5046 23.1949 13.5095 22.1502 12.6085 21.0268C10.4534 18.3336 8.22583 14.3672 8.22583 9.45966ZM17.6855 24.2661L16.9781 25.2762C17.1964 25.4294 17.4586 25.5078 17.7252 25.4995C17.9919 25.4912 18.2487 25.3967 18.4571 25.2301L17.6855 24.2661ZM17.6427 22.6653C17.7853 22.5359 17.9421 22.3879 18.1132 22.2211C19.088 21.2791 19.9931 20.2674 20.8212 19.1941C22.8085 16.6112 24.6774 13.1744 24.6774 9.45966C24.6774 7.60529 23.9408 5.82686 22.6295 4.51562C21.3183 3.20438 19.5399 2.46774 17.6855 2.46774C15.8311 2.46774 14.0527 3.20438 12.7415 4.51562C11.4302 5.82686 10.6936 7.60529 10.6936 9.45966C10.6936 13.6005 12.5773 17.0373 14.5367 19.4853C15.4671 20.6429 16.5072 21.7079 17.6427 22.6653ZM17.6855 7.40321C17.1401 7.40321 16.617 7.61987 16.2314 8.00553C15.8457 8.39119 15.629 8.91425 15.629 9.45966C15.629 10.0051 15.8457 10.5281 16.2314 10.9138C16.617 11.2994 17.1401 11.5161 17.6855 11.5161C18.2309 11.5161 18.754 11.2994 19.1396 10.9138C19.5253 10.5281 19.7419 10.0051 19.7419 9.45966C19.7419 8.91425 19.5253 8.39119 19.1396 8.00553C18.754 7.61987 18.2309 7.40321 17.6855 7.40321ZM13.1613 9.45966C13.1613 8.25977 13.638 7.10903 14.4864 6.26058C15.3349 5.41213 16.4856 4.93547 17.6855 4.93547C18.8854 4.93547 20.0361 5.41213 20.8846 6.26058C21.733 7.10903 22.2097 8.25977 22.2097 9.45966C22.2097 10.6595 21.733 11.8103 20.8846 12.6587C20.0361 13.5072 18.8854 13.9838 17.6855 13.9838C16.4856 13.9838 15.3349 13.5072 14.4864 12.6587C13.638 11.8103 13.1613 10.6595 13.1613 9.45966Z" fill="black"/>
</svg>
