<svg width="27" height="32" viewBox="0 0 27 32" fill="none" xmlns="http://www.w3.org/2000/svg">
<path d="M6.13636 1.18519C6.13636 0.870855 6.26567 0.569398 6.49582 0.347133C6.72598 0.124867 7.03814 0 7.36364 0C7.68913 0 8.00129 0.124867 8.23145 0.347133C8.46161 0.569398 8.59091 0.870855 8.59091 1.18519V2.37037H12.2727V1.18519C12.2727 0.870855 12.402 0.569398 12.6322 0.347133C12.8623 0.124867 13.1745 0 13.5 0C13.8255 0 14.1377 0.124867 14.3678 0.347133C14.598 0.569398 14.7273 0.870855 14.7273 1.18519V2.37037H18.4091V1.18519C18.4091 0.870855 18.5384 0.569398 18.7686 0.347133C18.9987 0.124867 19.3109 0 19.6364 0C19.9619 0 20.274 0.124867 20.5042 0.347133C20.7343 0.569398 20.8636 0.870855 20.8636 1.18519V2.37037H23.0114C24.0692 2.37037 25.0837 2.77619 25.8318 3.49855C26.5798 4.22091 27 5.20065 27 6.22222V22.5185C26.9999 22.8328 26.8706 23.1342 26.6404 23.3564L18.0495 31.6527C17.8194 31.875 17.5073 31.9999 17.1818 32H3.98864C2.93078 32 1.91626 31.5942 1.16824 30.8718C0.42023 30.1495 0 29.1697 0 28.1481V6.22222C0 5.20065 0.42023 4.22091 1.16824 3.49855C1.91626 2.77619 2.93078 2.37037 3.98864 2.37037H6.13636V1.18519ZM2.45455 6.22222V28.1481C2.45455 28.9659 3.14182 29.6296 3.98864 29.6296H15.3409V25.1852C15.3409 24.1636 15.7611 23.1839 16.5092 22.4615C17.2572 21.7392 18.2717 21.3333 19.3295 21.3333H24.5455V6.22222C24.5455 5.40444 23.8582 4.74074 23.0114 4.74074H3.98864C3.14182 4.74074 2.45455 5.40444 2.45455 6.22222ZM17.7955 28.5464L22.8101 23.7037H19.3295C18.4827 23.7037 17.7955 24.3674 17.7955 25.1852V28.5464ZM7.36364 9.48148C7.03814 9.48148 6.72598 9.60635 6.49582 9.82861C6.26567 10.0509 6.13636 10.3523 6.13636 10.6667C6.13636 10.981 6.26567 11.2825 6.49582 11.5047C6.72598 11.727 7.03814 11.8519 7.36364 11.8519H19.6364C19.9619 11.8519 20.274 11.727 20.5042 11.5047C20.7343 11.2825 20.8636 10.981 20.8636 10.6667C20.8636 10.3523 20.7343 10.0509 20.5042 9.82861C20.274 9.60635 19.9619 9.48148 19.6364 9.48148H7.36364ZM6.13636 16.5926C6.13636 16.2783 6.26567 15.9768 6.49582 15.7545C6.72598 15.5323 7.03814 15.4074 7.36364 15.4074H19.6364C19.9619 15.4074 20.274 15.5323 20.5042 15.7545C20.7343 15.9768 20.8636 16.2783 20.8636 16.5926C20.8636 16.9069 20.7343 17.2084 20.5042 17.4306C20.274 17.6529 19.9619 17.7778 19.6364 17.7778H7.36364C7.03814 17.7778 6.72598 17.6529 6.49582 17.4306C6.26567 17.2084 6.13636 16.9069 6.13636 16.5926ZM7.36364 21.3333C7.03814 21.3333 6.72598 21.4582 6.49582 21.6805C6.26567 21.9027 6.13636 22.2042 6.13636 22.5185C6.13636 22.8328 6.26567 23.1343 6.49582 23.3566C6.72598 23.5788 7.03814 23.7037 7.36364 23.7037H12.2727C12.5982 23.7037 12.9104 23.5788 13.1405 23.3566C13.3707 23.1343 13.5 22.8328 13.5 22.5185C13.5 22.2042 13.3707 21.9027 13.1405 21.6805C12.9104 21.4582 12.5982 21.3333 12.2727 21.3333H7.36364Z" fill="black"/>
</svg>
