<svg width="131" height="37" viewBox="0 0 131 37" fill="none" xmlns="http://www.w3.org/2000/svg">
<path d="M18.34 7.23C18.305 8.28 18.165 9.505 17.955 10.765C18.795 14.37 20.125 18.605 21.07 21.23C21.49 22.455 22.26 22.105 22.435 21.16C23.24 16.645 23.625 9.925 23.835 6.11C23.905 4.815 25.34 3.905 27.02 4.115C28.455 4.29 29.82 5.235 29.75 6.775C29.4 13.635 27.3 25.99 25.83 28.475C25.27 29.455 24.01 30.785 21.84 30.785C19.6 30.785 18.48 29.385 18.06 28.37C17.43 26.9 16.45 23.855 15.505 20.67C14.525 23.855 13.51 26.69 12.845 28.335C12.425 29.35 11.2 30.785 9.1 30.785C7.14 30.785 5.53 29.63 5.04 28.405C3.78 25.745 1.295 12.9 0.735 6.845C0.56 5.2 2.1 4.255 3.5 4.115C5.04 3.975 6.51 4.605 6.72 6.25C7.07 9.05 7.805 16.82 8.715 21.72C8.89 22.665 9.555 22.63 9.835 21.72C11.06 17.625 12.46 10.205 12.74 6.985C12.88 5.305 14.28 4.745 15.645 4.745C17.43 4.815 18.34 6.11 18.34 7.23ZM34.545 9.995H33.635C32.34 9.995 31.395 8.735 31.395 7.125C31.395 5.585 32.34 4.115 33.67 4.115H41.475C43.015 4.115 43.715 5.62 43.715 7.055C43.715 8.315 43.225 9.995 41.44 9.995H40.495C40.635 14.265 40.635 20.355 40.495 24.905H41.475C42.91 24.905 43.715 26.2 43.715 27.88C43.715 29.56 42.77 30.785 41.475 30.785H33.67C32.34 30.785 31.395 29.525 31.395 27.915C31.395 26.305 32.34 24.905 33.67 24.905H34.51C34.615 20.425 34.65 14.51 34.545 9.995ZM55.107 17.205C55.107 15.665 55.982 14.195 57.207 14.195H63.717C65.502 14.195 67.042 15.525 67.042 17.03V20.04C67.042 26.62 64.137 31.135 56.962 31.135C49.122 31.135 45.412 24.765 45.412 17.52C45.412 10.345 49.402 3.8 57.592 3.8C58.607 3.8 60.987 3.835 62.002 3.94C63.612 4.185 64.627 5.48 64.557 6.95C64.557 8.14 63.682 9.925 61.757 9.855C60.987 9.82 59.517 9.75 58.817 9.75C54.197 9.75 51.397 12.165 51.397 17.52C51.397 22.455 53.742 25.01 56.997 25.185C58.817 25.29 61.092 24.31 61.092 21.965V20.075H57.242C56.052 20.075 55.107 18.815 55.107 17.205ZM91.5018 17.52C91.5018 24.905 87.7568 31.135 80.1968 31.135C72.7768 31.135 68.9618 24.73 68.9618 17.485C68.9618 10.24 72.3918 3.8 80.1968 3.8C88.1068 3.8 91.5018 10.73 91.5018 17.52ZM85.4468 17.555C85.4468 12.41 83.6968 9.715 80.1268 9.715C76.7668 9.75 74.9818 12.27 74.9818 17.555C74.9818 22.455 76.7318 25.185 80.1618 25.185C83.6968 25.185 85.4468 22.455 85.4468 17.555Z" fill="#66D6FF"/>
<path d="M124.043 5.0152C123.245 5.06063 122.459 5.27124 121.759 5.61813C119.892 6.54043 118.336 8.17441 117.151 9.40368C117.034 9.5004 116.939 9.62154 116.87 9.75918C116.802 9.89682 116.762 10.0479 116.754 10.2025C116.746 10.3571 116.769 10.5118 116.822 10.6564C116.875 10.8011 116.958 10.9325 117.063 11.042C117.169 11.1515 117.296 11.2368 117.435 11.2921C117.575 11.3475 117.724 11.3717 117.873 11.3632C118.022 11.3548 118.168 11.3138 118.301 11.243C118.434 11.1722 118.551 11.0731 118.644 10.9523C119.814 9.74094 121.288 8.32308 122.673 7.63893C123.365 7.29754 123.991 7.14612 124.582 7.20944C125.173 7.27276 125.782 7.5054 126.451 8.19781C127.579 9.36789 127.643 10.3535 127.155 11.7259C126.67 13.0984 125.459 14.7337 124.001 16.2424C122.606 17.6878 121.565 19.0341 121.094 20.4588C120.854 21.1663 120.813 21.9298 120.974 22.6608C121.136 23.3918 121.495 24.0602 122.008 24.5885C123.101 25.7201 124.68 25.9789 126.118 25.4048C127.557 24.8322 128.992 23.6332 130.602 21.9634C130.718 21.8666 130.814 21.7454 130.882 21.6077C130.951 21.47 130.99 21.3189 130.998 21.1643C131.007 21.0097 130.983 20.855 130.93 20.7104C130.876 20.5658 130.794 20.4345 130.688 20.325C130.583 20.2156 130.456 20.1305 130.316 20.0752C130.177 20.02 130.027 19.9959 129.878 20.0045C129.729 20.0131 129.583 20.0542 129.45 20.1252C129.317 20.1961 129.2 20.2953 129.107 20.4162C127.594 21.9841 126.291 22.9738 125.371 23.34C124.452 23.7075 124.086 23.6442 123.503 23.0399C122.905 22.4204 122.847 22.0047 123.128 21.1471C123.41 20.2895 124.215 19.1181 125.496 17.7911C127.057 16.175 128.471 14.4185 129.15 12.4996C129.827 10.5834 129.585 8.34923 127.945 6.64918C126.996 5.66494 125.92 5.13083 124.832 5.0152C124.569 4.99493 124.305 4.99493 124.043 5.0152ZM109.843 9.14488C107.727 9.27387 105.731 10.2083 104.24 11.7686L102.826 13.2333L108.183 18.7822L109.635 17.2762C109.422 16.8361 109.348 16.3379 109.422 15.8517C109.497 15.3655 109.717 14.9158 110.051 14.5658L111.505 13.0612C111.842 12.7153 112.276 12.4877 112.745 12.4104C113.214 12.3331 113.695 12.41 114.119 12.6303L115.655 11.039C114.001 9.70425 111.939 9.03177 109.845 9.14488H109.843ZM117.233 12.629L115.614 14.307C115.773 14.7284 115.81 15.1884 115.721 15.6313C115.633 16.0742 115.423 16.4811 115.116 16.8027L113.662 18.3073C113.352 18.625 112.959 18.8429 112.532 18.9345C112.105 19.0261 111.661 18.9875 111.255 18.8235L109.719 20.4148L115.116 25.9651L116.528 24.5018C119.658 21.2586 119.879 16.1612 117.233 12.629ZM113.123 13.7481C112.872 13.7558 112.634 13.8639 112.459 14.0496L111.005 15.5542C110.831 15.7381 110.734 15.9851 110.734 16.2424C110.734 16.4997 110.831 16.7468 111.005 16.9307L111.38 17.3175C111.554 17.505 111.793 17.6138 112.044 17.6204C112.295 17.6138 112.534 17.505 112.708 17.3175L114.162 15.813C114.342 15.6318 114.446 15.3846 114.451 15.1247C114.445 14.8646 114.341 14.6174 114.16 14.4364L113.788 14.0496C113.703 13.9555 113.6 13.8803 113.486 13.8282C113.372 13.7762 113.249 13.7485 113.124 13.7467L113.123 13.7481ZM101.539 14.5658L99.5459 16.5866C96.1514 20.1051 96.1514 25.844 99.5459 29.3624C100.353 30.1986 101.311 30.862 102.365 31.3145C103.419 31.7671 104.549 32 105.691 32C106.832 32 107.962 31.7671 109.016 31.3145C110.071 30.862 111.029 30.1986 111.835 29.3624L113.828 27.2976L101.539 14.5658Z" fill="#C0EEFF"/>
</svg>
