<svg width="26" height="29" viewBox="0 0 26 29" fill="none" xmlns="http://www.w3.org/2000/svg">
<path d="M8.875 12.9995C8.875 14.0935 9.3096 15.1427 10.0832 15.9163C10.8568 16.6899 11.906 17.1245 13 17.1245C14.094 17.1245 15.1432 16.6899 15.9168 15.9163C16.6904 15.1427 17.125 14.0935 17.125 12.9995C17.125 11.9055 16.6904 10.8563 15.9168 10.0827C15.1432 9.30911 14.094 8.87451 13 8.87451C11.906 8.87451 10.8568 9.30911 10.0832 10.0827C9.3096 10.8563 8.875 11.9055 8.875 12.9995Z" stroke="white" stroke-width="3" stroke-linecap="round" stroke-linejoin="round"/>
<path d="M20.7784 20.778L14.9442 26.6121C14.4286 27.1272 13.7296 27.4166 13.0007 27.4166C12.2718 27.4166 11.5728 27.1272 11.0571 26.6121L5.22163 20.778C3.68331 19.2396 2.63572 17.2796 2.21133 15.1458C1.78693 13.012 2.0048 10.8003 2.83738 8.79035C3.66996 6.7804 5.07986 5.06246 6.88879 3.85379C8.69772 2.64512 10.8244 2 13 2C15.1756 2 17.3023 2.64512 19.1112 3.85379C20.9201 5.06246 22.33 6.7804 23.1626 8.79035C23.9952 10.8003 24.2131 13.012 23.7887 15.1458C23.3643 17.2796 22.3167 19.2396 20.7784 20.778Z" stroke="white" stroke-width="3" stroke-linecap="round" stroke-linejoin="round"/>
</svg>
