<svg width="16" height="14" viewBox="0 0 16 14" fill="none" xmlns="http://www.w3.org/2000/svg">
<path d="M10.232 5.99997H11.5C11.6326 5.99997 11.7598 6.05265 11.8536 6.14642C11.9473 6.24019 12 6.36736 12 6.49997C12 6.63258 11.9473 6.75976 11.8536 6.85353C11.7598 6.94729 11.6326 6.99997 11.5 6.99997H4.5C4.36739 6.99997 4.24021 6.94729 4.14645 6.85353C4.05268 6.75976 4 6.63258 4 6.49997C4 6.36736 4.05268 6.24019 4.14645 6.14642C4.24021 6.05265 4.36739 5.99997 4.5 5.99997H5.257C5.11548 5.84298 5.02735 5.64518 5.00525 5.43497C4.98315 5.22477 5.02822 5.01296 5.134 4.82997L7.634 0.499972C7.76661 0.270299 7.98503 0.102711 8.2412 0.0340734C8.49737 -0.0345644 8.77032 0.00137018 9 0.133972L11.598 1.63397C11.8277 1.76658 11.9953 1.985 12.0639 2.24117C12.1325 2.49735 12.0966 2.77029 11.964 2.99997L10.232 5.99997ZM11.098 2.49997L8.5 0.999972L6 5.32997L7.16 5.99997H9.078L11.098 2.49997ZM11.96 4.99997L12.537 3.99997C12.686 4.00557 12.8318 4.04439 12.9638 4.1136C13.0958 4.1828 13.2107 4.28065 13.3 4.39997L15.8 7.73297C15.9298 7.90607 16 8.1166 16 8.33297V13C16 13.2652 15.8946 13.5195 15.7071 13.7071C15.5196 13.8946 15.2652 14 15 14H1C0.734784 14 0.48043 13.8946 0.292893 13.7071C0.105357 13.5195 0 13.2652 0 13V8.33297C0 8.1166 0.0701779 7.90607 0.2 7.73297L2.7 4.39997C2.79315 4.27578 2.91393 4.17497 3.05279 4.10555C3.19164 4.03612 3.34475 3.99997 3.5 3.99997H4.463L3.984 4.82997C3.95275 4.88408 3.92663 4.94099 3.906 4.99997H3.5L1.25 7.99997H14.75L12.5 4.99997H11.96ZM1 13H15V8.99997H1V13Z" fill="white"/>
</svg>
