<svg width="93" height="93" viewBox="0 0 93 93" fill="none" xmlns="http://www.w3.org/2000/svg">
<g clip-path="url(#clip0_438_361)">
<path d="M79.3598 13.609C75.0451 9.28607 69.9192 5.85786 64.2762 3.52113C58.6332 1.18439 52.5842 -0.0148551 46.4765 -0.00778139C20.793 -0.00778139 -0.0273438 20.8126 -0.0273438 46.4961C-0.0273438 59.3378 5.18066 70.9667 13.5972 79.3832C17.9118 83.7061 23.0378 87.1343 28.6808 89.4711C34.3238 91.8078 40.3727 93.007 46.4804 93C72.1639 93 92.9843 72.1796 92.9843 46.4961C92.9843 33.6543 87.7763 22.0255 79.3598 13.609ZM73.3845 73.3886C69.8539 76.925 65.6599 79.7298 61.0432 81.6422C56.4264 83.5546 51.4776 84.537 46.4804 84.5331C25.4663 84.5331 8.43178 67.4986 8.43178 46.4845C8.42785 41.4873 9.41025 36.5385 11.3227 31.9217C13.2351 27.3049 16.0399 23.111 19.5763 19.5803C23.1065 16.0444 27.2998 13.2398 31.9158 11.3275C36.5319 9.41507 41.48 8.43242 46.4765 8.43584C67.4868 8.43584 84.5213 25.4703 84.5213 46.4806C84.5247 51.4771 83.5421 56.4252 81.6297 61.0413C79.7173 65.6574 76.9127 69.8506 73.3768 73.3808L73.3845 73.3886Z" fill="#66D6FF"/>
<path d="M52.456 46.4999L67.3941 31.5618C68.131 30.7586 68.5292 29.7019 68.5056 28.6121C68.4819 27.5224 68.0383 26.4839 67.2673 25.7134C66.4964 24.9429 65.4576 24.5 64.3678 24.4771C63.2781 24.4542 62.2216 24.853 61.4189 25.5904L61.4228 25.5865L46.4846 40.5247L31.5465 25.5865C30.7433 24.8497 29.6866 24.4515 28.5969 24.4751C27.5071 24.4987 26.4686 24.9423 25.6982 25.7133C24.9277 26.4843 24.4847 27.5231 24.4618 28.6128C24.4389 29.7026 24.8378 30.7591 25.5751 31.5618L25.5713 31.5579L40.5094 46.496L25.5713 61.4342C25.151 61.8198 24.8131 62.2864 24.5779 62.806C24.3426 63.3256 24.215 63.8875 24.2027 64.4577C24.1903 65.028 24.2934 65.5948 24.5059 66.1241C24.7184 66.6535 25.0357 67.1343 25.4389 67.5378C25.8421 67.9412 26.3228 68.2589 26.852 68.4717C27.3812 68.6845 27.9479 68.7881 28.5182 68.7761C29.0884 68.7641 29.6504 68.6368 30.1701 68.4019C30.6899 68.1671 31.1568 67.8295 31.5426 67.4094L31.5465 67.4055L46.4846 52.4674L61.4228 67.4055C61.8084 67.8258 62.275 68.1638 62.7946 68.399C63.3143 68.6342 63.8761 68.7618 64.4463 68.7742C65.0166 68.7865 65.5834 68.6834 66.1128 68.4709C66.6421 68.2584 67.123 67.9411 67.5264 67.5379C67.9298 67.1347 68.2475 66.654 68.4603 66.1248C68.6731 65.5957 68.7767 65.0289 68.7647 64.4586C68.7527 63.8884 68.6254 63.3264 68.3906 62.8067C68.1557 62.2869 67.8181 61.82 67.398 61.4342L67.3941 61.4303L52.456 46.4999Z" fill="#66D6FF"/>
</g>
<defs>
<clipPath id="clip0_438_361">
<rect width="93" height="93" fill="white"/>
</clipPath>
</defs>
</svg>
